# xmcd
#
# Track frame offsets:
#	150
#	25654
#	72788
#	94515
#
# Disc length: 1896 seconds
#
# Revision: 1
# Processed by: cddbd v1.4PL0 Copyright (c) Steve Scherf et al.
# Submitted via: audiograbber 1.82.01
#
DISCID=24076604
DTITLE=Samira Toufic - Almani
DYEAR=1900
DGENRE=
TTITLE0=Almani
TTITLE1=Oum Darej Li
TTITLE2=Hedni
TTITLE3=Farah Farah
EXTD=
EXTT0=
EXTT1=
EXTT2=
EXTT3=
PLAYORDER=
